<svg data-name="Layer 1" xmlns="http://www.w3.org/2000/svg" viewBox="0 0 285.16 273.06">
	<path d="M134.43 24.19C89.58 13.41 65.77 0 65.77 0s-3.64 31-18.56 54C29.3 59.93 16.84 73.11 16.84 88.43c0 7.79 3.22 15 8.74 21C10.86 112.13 0 121.54 0 132.74c0 8.69 6.54 16.31 16.35 20.55a14.81 14.81 0 00-.59 4.09s-2.29 24.75 30.69 31.06L53 203.89l11.25 23h-.07l3.54 7.4 16.4 35.91 124.63 2.76L227 225.83l4.79-12.69 5.4-14.18 4.07-10.61c33.6-7 31.42-31 31.42-31a13.83 13.83 0 00-4.47-10.34c10.41-6.91 16.95-16.89 16.95-28 0-18.59-18.37-34-42.56-37.18 3.9-7.24 5.12-15.13 2.87-22.65-4-13.28-17.67-21.87-34.4-23.31h-.14a497.57 497.57 0 01-55.23-7.21" fill="#f2f2f2" />
	<path d="M200.85 262.01l-110.93-2.57L46 160.53s47.17 7.21 96.05 7.21 97-7.21 97-7.21z" fill="#3bc4f4" />
	<path fill="#29aacc" d="M221.42 207.41L69 212.24l-5.92-13.27 163.17-4.5-4.83 12.94zM212.67 230.33l-134.5 2.5-6-13.25 144.85-.59-4.35 11.34zM205.08 250.66l-116.62 3.35-5.25-11.94 126.29-3.41-4.42 12z" />
	<path d="M222.86 185.92s-30.67 5.57-79.4 5.57-82.88-5.96-82.88-5.96c-33.29-4.5-31.53-29-31.53-29 0-6.6 4.64-12 10.3-12 0 0 63.36 9 103.55 9s104.68-9 104.68-9c5.66 0 10.29 5.4 10.29 12 0 0 2.24 25.13-35.01 29.39z" fill="#754c24" />
	<path d="M231.09 87.53c3.47-6.61 4.56-13.81 2.56-20.68-3.53-12.12-15.75-20-30.64-21.29h-.13c-83.62-6.46-129.3-32.84-129.3-32.84s-3.25 28.33-16.54 49.34c-16 5.41-27.05 17.45-27.05 31.43a28.66 28.66 0 007.79 19.21c-13.11 2.47-22.79 11.07-22.79 21.29 0 12.15 13.65 22 30.5 22a39.75 39.75 0 0015.53-3.06c6.15 8.94 18.71 15.06 33.22 15.06 13.11 0 24.63-5 31.27-12.56 7.42 11.57 23.21 19.56 41.48 19.56 18.81 0 35-8.47 42.1-20.6a60.29 60.29 0 0013.9 1.6c25.4 0 46-15.44 46-34.5.01-16.96-16.35-31.08-37.9-33.96z" fill="#a2ef65" />
	<circle cx="45.49" cy="137.24" r="7.83" fill="#62d156" />
	<circle cx="77.76" cy="141.03" r="7.83" fill="#62d156" />
	<circle cx="107.95" cy="148.58" r="7.83" fill="#62d156" />
	<circle cx="58.4" cy="115.82" r="7.83" fill="#62d156" />
	<circle cx="90.95" cy="113.82" r="7.83" fill="#62d156" />
	<circle cx="117.7" cy="121.46" r="7.83" fill="#62d156" />
	<circle cx="142.12" cy="144.15" r="7.83" fill="#62d156" />
	<circle cx="144.12" cy="120.15" r="7.83" fill="#62d156" />
	<circle cx="165.12" cy="148.15" r="7.83" fill="#62d156" />
	<circle cx="178.12" cy="123.15" r="7.83" fill="#62d156" />
	<circle cx="222.12" cy="101.15" r="7.83" fill="#62d156" />
	<circle cx="228.12" cy="133.15" r="7.83" fill="#62d156" />
	<circle cx="204.12" cy="121.15" r="7.83" fill="#62d156" />
	<circle cx="196.12" cy="145.15" r="7.83" fill="#62d156" />
	<circle cx="209.12" cy="63.15" r="7.83" fill="#62d156" />
	<circle cx="198.12" cy="88.15" r="7.83" fill="#62d156" />
	<circle cx="165.12" cy="98.15" r="7.83" fill="#62d156" />
	<circle cx="125.12" cy="100.15" r="7.83" fill="#62d156" />
	<circle cx="99.12" cy="80.15" r="7.83" fill="#62d156" />
	<circle cx="118.12" cy="64.15" r="7.83" fill="#62d156" />
	<circle cx="180.12" cy="73.15" r="7.83" fill="#62d156" />
	<circle cx="96.12" cy="39.15" r="7.83" fill="#62d156" />
	<circle cx="83.12" cy="66.15" r="7.83" fill="#62d156" />
	<circle cx="50.12" cy="82.15" r="7.83" fill="#62d156" />
	<circle cx="70.12" cy="90.15" r="7.83" fill="#62d156" />
	<circle cx="247.12" cy="108.15" r="7.83" fill="#62d156" />
	<circle cx="141.12" cy="79.15" r="7.83" fill="#62d156" />
	<circle cx="133.12" cy="48.15" r="7.83" fill="#62d156" />
	<circle cx="166.12" cy="54.15" r="7.83" fill="#62d156" />
</svg>
