<svg id="Layer_1" data-name="Layer 1" xmlns="https://www.w3.org/2000/svg" xmlns:xlink="http://www.w3.org/1999/xlink" viewBox="0 0 501.51 508.53">
	<defs>
		<linearGradient id="linear-gradient" x1="730.44" y1="596.76" x2="1178.79" y2="596.76" gradientUnits="userSpaceOnUse">
			<stop offset="0" stop-color="#23741f" />
			<stop offset="0.66" stop-color="#299f10" />
			<stop offset="1" stop-color="#29b510" />
		</linearGradient>
		<linearGradient id="linear-gradient-2" x1="713.75" y1="511.72" x2="1200.22" y2="511.72" gradientUnits="userSpaceOnUse">
			<stop offset="0.47" stop-color="#950601" />
			<stop offset="1" stop-color="#a61000" />
		</linearGradient>
		<linearGradient id="linear-gradient-3" x1="794.64" y1="575.54" x2="1129.37" y2="575.54" gradientUnits="userSpaceOnUse">
			<stop offset="0.01" stop-color="#23741f" />
			<stop offset="1" stop-color="#fff" />
		</linearGradient>
	</defs>
	<rect x="16.51" y="23.53" width="485" height="485" rx="80.93" style="fill:#f9ff7c" />
	<path d="M840.73,798.76h285.7c-4.58-56-14-110-14-110l66.36-121.21-33.18-129.09-65.54-43.66H864.78l-95.5,48.51L730.44,533l42.08,120.86,55,61.28S828.68,750.22,840.73,798.76Z" transform="translate(-713.75 -290.23)" style="fill:url(#linear-gradient)" />
	<path d="M937.16,293.73C773.58,306.94,704.74,433.81,714.69,560.39,721,640.36,790,756,833.23,725.71c17.93-15.4,5.06-31.18,3.47-33.47-8.89-12.81-36.72-22-49.23-57.11C753.63,540.21,771.78,451.59,949,437.3c177.29-13.56,209.06,71.14,190.46,170.18-6.88,36.63-32.94,50.06-39.72,64.1-1.21,2.51-11.46,20.1,8.66,32.51,47.38,23.13,97.56-101.83,91.27-181.79C1189.74,395.71,1100.8,281.24,937.16,293.73Z" transform="translate(-713.75 -290.23)" style="fill:url(#linear-gradient-2)" />
	<path d="M892.79,295.85c-3.61,11.09-20.68,68.47.26,106,23.25,41.73,44.54,7.46,44.54,7.46l-6.72-117.8c2.54,0-3,0-3.19,0Q909.56,293,892.79,295.85Z" transform="translate(-713.75 -290.23)" style="fill:#fff" />
	<path d="M953.5,408.6s26.84,30.49,43.3-14.36c14.4-39.22-9.75-91.33-16-103.78-11.78-.4-23.94-.28-36.51.43Z" transform="translate(-713.75 -290.23)" style="fill:#fff" />
	<path d="M989.59,579.73c0,5.67-5.48,10.26-12.23,10.26s-12.23-4.59-12.23-10.26,5.48-10.25,12.23-10.25S989.59,574.07,989.59,579.73Z" transform="translate(-713.75 -290.23)" style="fill:#fff;opacity:0.1" />
	<path d="M948.39,309.88c-2.37-.08-4.76-.12-7.17-.16l9,115.07a36.85,36.85,0,0,0,5.68,5c3-3.74,5.87-9,8.49-16.09" transform="translate(-713.75 -290.23)" style="fill:#ccc;opacity:0.7000000000000001" />
	<path d="M896.28,393.79c-17.78-31.9-8.15-78.08-2.63-98.07l-.86.13c-3.61,11.09-20.68,68.47.26,106,23.25,41.73,44.54,7.46,44.54,7.46l-.21-3.66C930.44,413.36,913.93,425.45,896.28,393.79Z" transform="translate(-713.75 -290.23)" style="fill:#ccc;opacity:0.7000000000000001" />
	<path d="M930.44,292.72c-.88,3-1.67,6.18-1.6,7.22,0,0-8.68,84.31,6.86,113.21,19.54,36.39,4.4,4.1,10.5,3.62l-.28-3.53c2.64-.21,9,14.31,10.75,14,.24,6.61,16.19,10.28,22.2-6.18.83-.19-28.26,7.83-28.26,7.83a218.93,218.93,0,0,0,9.48-26.58c8.15-28.57-7-97.67-10.36-110.75q-8.9.31-18.05,1Z" transform="translate(-713.75 -290.23)" />
	<path d="M1163.9,544.14c-7.84-99.89-41.81-148.71-217.67-134.89S744.44,476.58,752.29,576.47c4.47,57,35.74,86.23,84.41,115.77h0c-8.89-12.81-36.72-22-49.23-57.11C753.63,540.21,771.78,451.59,949,437.3c177.29-13.56,209.06,71.14,190.46,170.18-6.88,36.63-32.94,50.06-39.72,64.1h0C1142.66,634.84,1168.35,600.72,1163.9,544.14Z" transform="translate(-713.75 -290.23)" style="fill:#2b0100" />
	<path d="M967.1,576.8a86.36,86.36,0,1,1-92.86-79.33A86.36,86.36,0,0,1,967.1,576.8Z" transform="translate(-713.75 -290.23)" style="fill:#fff" />
	<path d="M1129.1,560.74a86.36,86.36,0,1,1-92.86-79.33A86.36,86.36,0,0,1,1129.1,560.74Z" transform="translate(-713.75 -290.23)" style="fill:#fff" />
	<path d="M931.2,587.9a41.52,41.52,0,1,1-44.65-38.14A41.54,41.54,0,0,1,931.2,587.9Z" transform="translate(-713.75 -290.23)" />
	<path d="M1076.71,569.65a41.52,41.52,0,1,1-44.64-38.14A41.52,41.52,0,0,1,1076.71,569.65Z" transform="translate(-713.75 -290.23)" />
	<path d="M1129.1,560.74a86.36,86.36,0,0,0-169.94-13.93,86.37,86.37,0,1,0,5.69,57.45,86.36,86.36,0,0,0,164.25-43.52ZM890,659.45A79.87,79.87,0,1,1,958.23,551a86.47,86.47,0,0,0,3.54,45.81A79.88,79.88,0,0,1,890,659.45Zm162-16.06a79.87,79.87,0,0,1-84.8-65.14c0-.48,0-1-.08-1.45-.23-2.87-.6-5.69-1.09-8.46a79.86,79.86,0,1,1,86,75Z" transform="translate(-713.75 -290.23)" style="opacity:0.2;fill:url(#linear-gradient-3)" />
	<path d="M919.32,557.16c.6,7.66-7.45,14.55-18,15.38s-19.57-4.72-20.18-12.39,7.46-14.55,18-15.38S918.72,549.49,919.32,557.16Z" transform="translate(-713.75 -290.23)" style="fill:#fff;opacity:0.8" />
	<path d="M1065,542.59c.6,7.67-7.46,14.55-18,15.38s-19.57-4.72-20.17-12.38,7.45-14.56,18-15.39S1064.39,534.92,1065,542.59Z" transform="translate(-713.75 -290.23)" style="fill:#fff;opacity:0.8" />
</svg>
